<svg width="40" height="42" viewBox="0 0 40 42" fill="none" xmlns="http://www.w3.org/2000/svg">
<path d="M12.8385 25.7997C13.0073 25.8701 13.1971 25.8706 13.3662 25.801C13.5353 25.7315 13.6699 25.5975 13.7403 25.4288L14.7124 23.0951H18.3898L19.3619 25.4288C19.5084 25.7802 19.9122 25.9463 20.2636 25.7997C20.6151 25.6532 20.7811 25.2494 20.6346 24.898L17.1874 16.6249C17.0804 16.3681 16.8294 16.2007 16.5511 16.2007C16.2729 16.2007 16.0219 16.3681 15.9148 16.6249L12.4677 24.898C12.3973 25.0667 12.3968 25.2566 12.4664 25.4257C12.5359 25.5947 12.6697 25.7293 12.8385 25.7997ZM16.5511 18.6827L17.8148 21.7162H15.2873L16.5511 18.6827Z" fill="#F28B65"/>
<path fill-rule="evenodd" clip-rule="evenodd" d="M22.0664 24.4739C21.6856 24.4739 21.377 24.7826 21.377 25.1633C21.377 25.5441 21.6856 25.8528 22.0664 25.8528H26.2029C26.5837 25.8528 26.8924 25.5441 26.8924 25.1633C26.8924 24.7826 26.5837 24.4739 26.2029 24.4739H24.8241V17.5797H26.2029C26.5837 17.5797 26.8924 17.271 26.8924 16.8902C26.8924 16.5095 26.5837 16.2008 26.2029 16.2008H22.0664C21.6856 16.2008 21.377 16.5095 21.377 16.8902C21.377 17.271 21.6856 17.5797 22.0664 17.5797H23.4453V24.4739H22.0664Z" fill="#F28B65"/>
<path d="M0.00497775 30.6787C0.00497775 32.2017 1.23967 33.4364 2.76265 33.4364C3.10808 33.4351 3.45012 33.3682 3.77058 33.2392C5.40037 34.487 7.70032 35.1379 10.5269 35.1379C10.953 35.1379 11.3956 35.1178 11.8444 35.0889C13.8465 39.18 16.7352 41.7095 19.9982 41.7095C23.2612 41.7095 26.1499 39.18 28.1527 35.091C28.6022 35.1199 29.0441 35.1399 29.4702 35.1399C32.2968 35.1399 34.5967 34.4891 36.2265 33.2412C36.5469 33.3694 36.8887 33.4356 37.2338 33.4364C38.4509 33.4329 39.5219 32.6318 39.869 31.4651C40.2162 30.2985 39.7574 29.0423 38.7401 28.3739C38.8366 26.154 37.9783 23.6348 36.2313 21.0267C37.9783 18.4193 38.8367 15.9002 38.7401 13.6795C39.932 12.9104 40.3438 11.3611 39.6911 10.1017C39.0385 8.84221 37.5352 8.28536 36.2196 8.81561C34.3464 7.38233 31.5805 6.74737 28.1533 6.97074C26.1528 2.87633 23.2627 0.344055 19.9983 0.344055C16.7338 0.344055 13.8438 2.87633 11.841 6.97081C8.41527 6.7488 5.65067 7.38443 3.77472 8.81568C2.4599 8.2897 0.960526 8.84737 0.308951 10.1047C-0.342624 11.3621 0.0663153 12.9087 1.25419 13.6796C1.15906 15.8989 2.01805 18.418 3.76509 21.0268C2.01805 23.6349 1.15906 26.154 1.25629 28.374C0.476543 28.8814 0.00585982 29.7484 0.00497775 30.6787ZM1.38385 30.6787C1.38385 29.9172 2.00116 29.2998 2.76272 29.2998C3.52428 29.2998 4.14159 29.9171 4.14159 30.6787C4.14159 31.4402 3.52428 32.0576 2.76272 32.0576C2.397 32.0576 2.04628 31.9123 1.7877 31.6537C1.52912 31.3951 1.38385 31.0444 1.38385 30.6787ZM12.6966 8.42411C14.532 8.64388 16.3402 9.04977 18.0934 9.63546C16.8594 10.1862 15.6543 10.7996 14.4829 11.4735C13.3074 12.1519 12.1687 12.8922 11.0716 13.6913C11.4331 11.885 11.9776 10.1201 12.6966 8.42411ZM28.9242 13.6913C27.8275 12.8922 26.689 12.1518 25.5136 11.4735C24.3439 10.8005 23.1409 10.187 21.9093 9.63546C23.6607 9.05004 25.4671 8.64422 27.3006 8.42411C28.0192 10.1202 28.5632 11.885 28.9242 13.6913ZM27.2999 33.6295C25.4646 33.4097 23.6563 33.0038 21.9031 32.4181C23.1371 31.8674 24.3422 31.2539 25.5136 30.5801C26.6891 29.9017 27.8278 29.1613 28.9249 28.3622C28.5635 30.1686 28.019 31.9334 27.2999 33.6295ZM24.8243 12.6682C26.379 13.563 27.8653 14.5716 29.271 15.6858C29.5246 17.4548 29.6513 19.2397 29.6502 21.0268C29.6515 22.8139 29.525 24.5987 29.2717 26.3678C27.8657 27.4819 26.3791 28.4906 24.8243 29.3854C23.2743 30.2818 21.6614 31.0648 19.9983 31.728C18.335 31.0644 16.7221 30.281 15.1723 29.3839C13.6176 28.4892 12.1313 27.4806 10.7255 26.3663C10.2209 22.8236 10.2209 19.2272 10.7255 15.6844C12.1313 14.5707 13.6177 13.5625 15.1723 12.6681C16.7235 11.771 18.3378 10.9876 20.0024 10.3241C21.6642 10.9879 23.2758 11.7713 24.8243 12.6682ZM30.8222 16.9888C32.1973 18.2061 33.4462 19.559 34.55 21.0268C33.4477 22.4943 32.2004 23.8472 30.8271 25.0647C30.9625 23.7231 31.0299 22.3753 31.0291 21.0268C31.0295 19.6782 30.9616 18.3305 30.8258 16.9888H30.8222ZM9.17432 25.0647C7.79891 23.8478 6.54997 22.4949 5.44657 21.0268C6.54882 19.5592 7.79606 18.2064 9.16943 16.9888C8.89823 19.674 8.89823 22.3796 9.16943 25.0647H9.17432ZM14.487 30.5801C15.6567 31.2531 16.8597 31.8666 18.0913 32.4181C16.3399 33.0035 14.5335 33.4094 12.7 33.6295C11.9812 31.9334 11.437 30.1686 11.0757 28.3622C12.1714 29.1613 13.3087 29.9017 14.4829 30.5801H14.487ZM19.9983 40.3307C17.4088 40.3307 15.0558 38.2769 13.3205 34.9456C15.6054 34.6217 17.8458 34.0378 19.9983 33.2055C22.1515 34.0382 24.3929 34.622 26.6788 34.9456C24.9401 38.2769 22.5877 40.3307 19.9983 40.3307ZM37.2339 32.0576C36.4724 32.0576 35.855 31.4402 35.855 30.6787C35.855 29.9171 36.4723 29.2998 37.2339 29.2998C37.9955 29.2998 38.6128 29.9171 38.6128 30.6787C38.6128 31.4402 37.9954 32.0576 37.2339 32.0576ZM37.3786 27.9355C37.3297 27.9355 37.2835 27.921 37.2338 27.921C35.7108 27.921 34.4762 29.1557 34.4762 30.6787C34.4787 31.2952 34.6899 31.8927 35.0753 32.3739C33.5737 33.3646 31.382 33.8355 28.7567 33.7369C29.6115 31.6015 30.2173 29.3747 30.5623 27.1006C32.3455 25.6647 33.9593 24.0303 35.3724 22.2291C36.5365 23.9191 37.229 25.8889 37.3786 27.9355ZM38.6127 11.3748C38.6127 12.1363 37.9954 12.7537 37.2338 12.7537C36.4723 12.7537 35.855 12.1364 35.855 11.3748C35.855 10.6133 36.4723 9.99595 37.2338 9.99595C37.9954 9.99595 38.6127 10.6133 38.6127 11.3748ZM35.0753 9.67956C34.69 10.1608 34.4788 10.7583 34.4762 11.3748C34.4762 12.8979 35.7108 14.1325 37.2338 14.1325C37.2835 14.1325 37.3296 14.1208 37.3786 14.118C37.2292 16.1647 36.5367 18.1345 35.3724 19.8244C33.959 18.0232 32.345 16.3888 30.5616 14.953C30.2162 12.6787 29.6096 10.4518 28.7539 8.31657C31.3814 8.2173 33.5744 8.68608 35.0753 9.67956ZM19.9983 1.72293C22.5877 1.72293 24.9408 3.77671 26.6761 7.108C24.3923 7.4322 22.153 8.01599 20.0017 8.84811C17.8485 8.01538 15.6071 7.43159 13.3212 7.108C15.0565 3.77671 17.4088 1.72293 19.9983 1.72293ZM2.76265 9.99602C3.52415 9.99602 4.14152 10.6133 4.14152 11.3749C4.14152 12.1365 3.52421 12.7538 2.76265 12.7538C2.00109 12.7538 1.38378 12.1365 1.38378 11.3749C1.38378 10.6133 2.00116 9.99602 2.76265 9.99602ZM2.61793 14.118C2.66685 14.118 2.71305 14.1325 2.76272 14.1325C4.28578 14.1325 5.5204 12.8978 5.5204 11.3748C5.51782 10.7583 5.30666 10.1608 4.92127 9.67956C6.42214 8.68887 8.6138 8.21866 11.2398 8.31657C10.3851 10.452 9.77921 12.6789 9.43426 14.953C7.65126 16.3888 6.03749 18.0229 4.62415 19.8237C3.45969 18.1342 2.76713 16.1646 2.61793 14.118ZM4.62415 22.2298C6.03817 24.0305 7.65235 25.6646 9.43561 27.1006C9.78097 29.375 10.3873 31.6021 11.2426 33.7376C8.61868 33.8369 6.4256 33.3646 4.92405 32.3739C5.30843 31.8923 5.51856 31.2948 5.5204 30.6787C5.5204 29.1556 4.28571 27.921 2.76272 27.921C2.71305 27.921 2.66691 27.9334 2.61793 27.9355C2.7674 25.889 3.45989 23.9195 4.62415 22.2298Z" fill="#F28B65"/>
</svg>
