<svg width="134" height="43" viewBox="0 0 134 43" fill="none" xmlns="http://www.w3.org/2000/svg">
<path d="M60.9455 7.62848L71.5378 33H65.6691L63.3789 27.5607H52.6076L50.3532 33H44.4486L55.041 7.62848H60.9455ZM61.3391 22.6224L58.0111 14.6423L54.6831 22.6224H61.3391ZM78.9459 33H74.0076V15.2507H78.9459V33ZM76.4767 12.8173C75.7133 12.8173 75.0692 12.5549 74.5443 12.03C74.0195 11.5052 73.7571 10.861 73.7571 10.0976C73.7571 9.33423 74.0195 8.6901 74.5443 8.16525C75.0692 7.61655 75.7133 7.3422 76.4767 7.3422C77.2401 7.3422 77.8843 7.61655 78.4091 8.16525C78.934 8.6901 79.1964 9.33423 79.1964 10.0976C79.1964 10.861 78.934 11.5052 78.4091 12.03C77.8843 12.5549 77.2401 12.8173 76.4767 12.8173ZM100.522 6.87699V33H96.2991L95.5834 31.4612C95.0347 32.0338 94.2713 32.5109 93.2931 32.8926C92.3389 33.2505 91.3369 33.4294 90.2872 33.4294C89.0228 33.4294 87.8538 33.1909 86.7803 32.7137C85.7067 32.2127 84.7763 31.5447 83.989 30.7098C83.2256 29.8509 82.6173 28.8609 82.164 27.7396C81.7346 26.5945 81.5199 25.3778 81.5199 24.0895C81.5199 22.8013 81.7346 21.5965 82.164 20.4753C82.6173 19.3302 83.2256 18.3401 83.989 17.5051C84.7763 16.6463 85.7067 15.9783 86.7803 15.5012C87.8538 15.0002 89.0228 14.7497 90.2872 14.7497C91.4085 14.7497 92.3985 14.8809 93.2573 15.1433C94.14 15.4057 94.9154 15.8471 95.5834 16.4674V6.87699H100.522ZM95.5834 24.1611C95.5834 23.2307 95.4641 22.4554 95.2255 21.8351C94.987 21.191 94.653 20.6781 94.2235 20.2963C93.7941 19.8908 93.2931 19.6045 92.7206 19.4375C92.1719 19.2467 91.5755 19.1512 90.9313 19.1512C90.2872 19.1512 89.6789 19.2824 89.1063 19.5449C88.5576 19.8073 88.0685 20.1651 87.6391 20.6184C87.2335 21.0478 86.9115 21.5727 86.6729 22.1929C86.4344 22.7894 86.3151 23.4216 86.3151 24.0895C86.3151 24.7814 86.4344 25.4255 86.6729 26.0219C86.9115 26.6184 87.2335 27.1432 87.6391 27.5965C88.0685 28.0259 88.5576 28.3718 89.1063 28.6342C89.6789 28.8967 90.2872 29.0279 90.9313 29.0279C92.2196 29.0279 93.3051 28.6342 94.1878 27.847C95.0943 27.0358 95.5595 25.8072 95.5834 24.1611ZM109.104 33H104.166V15.2507H109.104V33ZM106.635 12.8173C105.872 12.8173 105.228 12.5549 104.703 12.03C104.178 11.5052 103.916 10.861 103.916 10.0976C103.916 9.33423 104.178 8.6901 104.703 8.16525C105.228 7.61655 105.872 7.3422 106.635 7.3422C107.399 7.3422 108.043 7.61655 108.568 8.16525C109.093 8.6901 109.355 9.33423 109.355 10.0976C109.355 10.861 109.093 11.5052 108.568 12.03C108.043 12.5549 107.399 12.8173 106.635 12.8173ZM131.36 15.2507V33H127.102L126.601 31.1034C125.909 32.0338 125.074 32.6541 124.096 32.9642C123.142 33.2744 122.14 33.4294 121.09 33.4294C119.826 33.4294 118.657 33.1909 117.583 32.7137C116.533 32.2127 115.615 31.5447 114.828 30.7098C114.04 29.8509 113.42 28.8609 112.967 27.7396C112.537 26.5945 112.323 25.3778 112.323 24.0895C112.323 22.8013 112.537 21.5965 112.967 20.4753C113.42 19.3302 114.04 18.3401 114.828 17.5051C115.615 16.6463 116.533 15.9783 117.583 15.5012C118.657 15.0002 119.826 14.7497 121.09 14.7497C122.235 14.7497 123.285 14.9286 124.239 15.2865C125.193 15.6443 125.981 16.2169 126.601 17.0041L127.102 15.2507H131.36ZM126.422 24.1611C126.422 23.2307 126.291 22.4554 126.028 21.8351C125.79 21.191 125.456 20.6781 125.026 20.2963C124.621 19.8908 124.132 19.6045 123.559 19.4375C123.01 19.2467 122.414 19.1512 121.77 19.1512C121.126 19.1512 120.517 19.2824 119.945 19.5449C119.396 19.8073 118.907 20.1651 118.478 20.6184C118.048 21.0478 117.714 21.5727 117.476 22.1929C117.237 22.7894 117.118 23.4216 117.118 24.0895C117.118 24.7814 117.237 25.4255 117.476 26.0219C117.714 26.6184 118.048 27.1432 118.478 27.5965C118.907 28.0259 119.396 28.3718 119.945 28.6342C120.517 28.8967 121.126 29.0279 121.77 29.0279C123.058 29.0279 124.144 28.6342 125.026 27.847C125.933 27.0358 126.398 25.8072 126.422 24.1611Z" fill="#FF6F61"/>
<path d="M21.3119 20.3169L25.9778 16.4076C25.9778 16.4076 23.9765 16.8087 22.699 17.1642C21.6628 17.4526 20.0508 18.047 20.0508 18.047L21.3119 20.3169Z" fill="url(#paint0_linear_351_1191)"/>
<path d="M22.6994 22.2526L19.0423 24.1442L14.2588 14.7237C14.2588 14.7237 10.2147 8.84111 7.44032 10.8588C4.11985 13.2737 9.34064 17.1198 9.34064 17.1198L6.93604 18.3432C6.93604 18.3432 3.06225 16.392 1.51325 14.3899C-0.891557 11.2816 -0.220585 7.96074 3.66579 5.51788C8.41013 2.53573 13.7932 6.39708 16.2766 11.1927C19.0423 16.5337 22.6994 22.2526 22.6994 22.2526Z" fill="url(#paint1_linear_351_1191)"/>
<path d="M10.8451 19.8566C13.5563 19.0314 14.933 15.9032 14.933 15.9032L14.3025 14.6421L8.75377 17.4164C8.75377 17.4164 6.35155 18.1846 3.33114 20.443C0.199024 22.785 -1.66162 26.1657 2.07282 30.5494C4.91096 33.881 10.2959 33.0347 13.2762 29.8288C15.565 27.3667 18.9983 23.974 18.9983 23.974L16.5724 19.182C16.5724 19.182 15.0161 23.2976 12.7892 24.6046C10.813 25.7645 7.6188 26.3701 6.98826 25.4873C6.46996 24.7617 5.04418 21.6221 10.8451 19.8566Z" fill="url(#paint2_linear_351_1191)"/>
<path d="M26.257 16.1676C21.8427 19.5906 21.3121 20.3169 21.3121 20.3169L22.3209 22.5048L26.9869 19.8125C26.9869 19.8125 29.8935 18.9183 32.914 16.6598C36.0461 14.3178 38.0626 11.0633 34.3282 6.67954C31.4901 3.34794 26.1051 4.19429 23.1249 7.40015C20.836 9.86226 17.2766 13.4251 17.2766 13.4251L19.6727 17.5426C19.6727 17.5426 20.521 13.5469 22.4623 12.0841C24.6042 10.4702 28.054 9.36134 29.2084 10.763C31.4007 13.4251 26.7991 15.7473 26.257 16.1676Z" fill="url(#paint3_linear_351_1191)"/>
<path d="M18.9158 23.9514L22.518 22.2821C22.518 22.2821 27.0766 27.7411 29.3827 25.7396C32.3417 23.1714 26.9867 19.8125 26.9867 19.8125L30.3657 18.1731C30.3657 18.1731 37.2874 22.1702 36.7983 26.1343C36.5371 28.2517 35.9122 29.9194 34.1748 31.1622C26.4557 36.6837 18.9158 23.9514 18.9158 23.9514Z" fill="url(#paint4_linear_351_1191)"/>
<path d="M14.8805 15.9472L16.3938 18.9297C16.3938 18.9297 14.9171 19.2841 13.8718 19.4782C12.7487 19.6868 10.8452 19.8565 10.8452 19.8565L14.8805 15.9472Z" fill="url(#paint5_linear_351_1191)"/>
<defs>
<linearGradient id="paint0_linear_351_1191" x1="24.8486" y1="17.322" x2="20.1711" y2="18.1415" gradientUnits="userSpaceOnUse">
<stop stop-color="#F67D79"/>
<stop offset="1" stop-color="#F67D79"/>
</linearGradient>
<linearGradient id="paint1_linear_351_1191" x1="17.4115" y1="16.1109" x2="5.80957" y2="16.3631" gradientUnits="userSpaceOnUse">
<stop stop-color="#F26461"/>
<stop offset="1" stop-color="#F79E98"/>
</linearGradient>
<linearGradient id="paint2_linear_351_1191" x1="11.2235" y1="17.3344" x2="14.6284" y2="24.1442" gradientUnits="userSpaceOnUse">
<stop stop-color="#F26461"/>
<stop offset="1" stop-color="#F68B87"/>
</linearGradient>
<linearGradient id="paint3_linear_351_1191" x1="24.0886" y1="19.8665" x2="24.5675" y2="10.9788" gradientUnits="userSpaceOnUse">
<stop stop-color="#F36765"/>
<stop offset="1" stop-color="#F57F7A"/>
</linearGradient>
<linearGradient id="paint4_linear_351_1191" x1="24.4478" y1="26.2627" x2="30.8686" y2="20.087" gradientUnits="userSpaceOnUse">
<stop stop-color="#F26461"/>
<stop offset="1" stop-color="#F79E98"/>
</linearGradient>
<linearGradient id="paint5_linear_351_1191" x1="13.6196" y1="17.2083" x2="15.0068" y2="17.4605" gradientUnits="userSpaceOnUse">
<stop stop-color="#F5827E"/>
<stop offset="1" stop-color="#F56E6C"/>
</linearGradient>
</defs>
</svg>
