<svg width="31" height="31" viewBox="0 0 31 31" fill="none" xmlns="http://www.w3.org/2000/svg">
<g clip-path="url(#clip0_415_32)">
<path d="M15.5 0C6.94638 0 0 6.94638 0 15.5C0 24.0536 6.94638 31 15.5 31C24.0536 31 31 24.0536 31 15.5C31 6.94638 24.0536 0 15.5 0ZM15.5 1.19469C23.4086 1.19469 29.8077 7.59142 29.8077 15.5C29.8077 23.4086 23.4086 29.8077 15.5 29.8077C7.59142 29.8077 1.19231 23.4086 1.19231 15.5C1.19231 7.59142 7.59142 1.19469 15.5 1.19469ZM15.5024 7.74523C14.4839 7.74412 13.4753 7.94432 12.5344 8.33432C11.5936 8.72432 10.7391 9.29644 10.0202 10.0178C9.29936 10.737 8.7275 11.5913 8.33732 12.5318C7.94714 13.4723 7.7463 14.4806 7.7463 15.4988C7.7463 16.517 7.94714 17.5253 8.33732 18.4658C8.7275 19.4063 9.29936 20.2606 10.0202 20.9798C10.7394 21.7006 11.5937 22.2725 12.5342 22.6627C13.4747 23.0529 14.483 23.2537 15.5012 23.2537C16.5194 23.2537 17.5277 23.0529 18.4682 22.6627C19.4087 22.2725 20.263 21.7006 20.9822 20.9798C21.703 20.2606 22.2749 19.4063 22.6651 18.4658C23.0552 17.5253 23.2561 16.517 23.2561 15.4988C23.2561 14.4806 23.0552 13.4723 22.6651 12.5318C22.2749 11.5913 21.703 10.737 20.9822 10.0178C20.2637 9.29651 19.4096 8.72442 18.4692 8.33441C17.5288 7.9444 16.5205 7.74417 15.5024 7.74523ZM19.0316 13.113H19.0936C19.5896 13.1202 19.8364 13.8999 19.4358 14.1908L14.6666 17.7678C14.5503 17.8497 14.4092 17.8889 14.2673 17.8787C14.1254 17.8685 13.9914 17.8095 13.888 17.7117L11.5034 15.3271C11.0479 14.8895 11.9088 14.0275 12.3463 14.4842L14.3661 16.5039L18.7204 13.237C18.811 13.1674 18.9192 13.1244 19.0328 13.113H19.0316Z" fill="#FF6F61"/>
</g>
<defs>
<clipPath id="clip0_415_32">
<rect width="31" height="31" fill="white"/>
</clipPath>
</defs>
</svg>
