<svg width="40" height="34" viewBox="0 0 40 34" fill="none" xmlns="http://www.w3.org/2000/svg">
<path d="M40 32.0344C39.9443 32.1173 39.9291 32.2198 39.8951 32.3121C39.8132 32.535 39.6017 32.7395 39.4013 32.8706C39.1701 33.022 38.9201 33.0878 38.6422 33.1008C38.2369 33.1199 37.8222 33.0954 37.416 33.0937L34.8945 33.0926L25.3254 33.0988L20.5777 33.0982L19.4033 33.098C19.1356 33.0978 18.853 33.118 18.5899 33.067C18.2375 32.9987 17.899 32.8043 17.702 32.5122C17.4882 32.1953 17.4429 31.7599 17.5271 31.3965C17.5636 31.2331 17.6342 31.0784 17.7347 30.9416C17.8351 30.8049 17.9634 30.6889 18.1118 30.6006C18.317 30.4791 18.5383 30.4389 18.7765 30.4309C19.2819 30.4139 19.7947 30.4355 20.3009 30.4361L23.4728 30.4387L32.183 30.4389H36.8457C37.3689 30.4404 38.5668 30.3907 39.0131 30.4983C39.383 30.5874 39.6599 30.8163 39.8496 31.1268C39.8992 31.2079 39.9271 31.299 39.9787 31.3784C39.9855 31.3892 39.9929 31.3997 40 31.4103V32.0344Z" fill="black"/>
<path d="M13.6437 0.00224895C14.7811 -0.0336417 16.0305 0.361828 16.9048 1.06089C17.4113 1.45927 17.8289 1.95087 18.1329 2.50651C18.4368 3.06216 18.6209 3.67053 18.6743 4.29551C18.7328 4.92407 18.6605 5.55749 18.4616 6.1592C18.2627 6.76092 17.9412 7.31902 17.5155 7.80131C16.5898 8.83992 15.3994 9.35802 13.9904 9.46109C12.7443 9.55019 11.5101 9.03662 10.5774 8.27213C9.57982 7.45449 9.02978 6.26268 8.93644 5.02216C8.84257 3.78063 9.26558 2.55393 10.1134 1.60922C11.0432 0.585892 12.2458 0.0947952 13.6437 0.00224895ZM13.784 2.74684C13.1839 2.78846 12.6979 2.96401 12.2941 3.40949C11.9321 3.8132 11.7515 4.33729 11.7917 4.86769C11.8375 5.41828 12.0677 5.88958 12.511 6.24681C12.9094 6.56781 13.4014 6.71957 13.9202 6.70749C14.5185 6.66934 14.9877 6.45216 15.3862 6.02047C15.7602 5.61519 15.9295 5.09799 15.8939 4.56155C15.858 4.02099 15.5989 3.56164 15.1719 3.20966C14.8156 2.91604 14.2929 2.70402 13.8152 2.74385C13.8048 2.74473 13.7944 2.74585 13.784 2.74684Z" fill="black"/>
<path d="M11.1727 12.4419L7.56562 12.4434C7.15616 12.4428 6.74671 12.4485 6.33744 12.4605C6.12662 12.4665 5.89857 12.4608 5.69143 12.4993C5.57051 12.5218 5.44762 12.6048 5.36258 12.6872C5.09832 12.943 4.62092 14.0238 4.42195 14.4104C4.00719 15.216 3.58193 16.0157 3.17863 16.8267C3.00664 17.1728 2.77324 17.7559 2.52025 18.037C2.26521 18.3202 1.87631 18.5201 1.48319 18.5331C1.10503 18.5456 0.710117 18.392 0.434682 18.1466C0.172121 17.9124 0.052941 17.5774 0.0434709 17.24C0.0388574 17.0757 0.0819805 16.8904 0.144408 16.7367C0.277631 16.4088 0.454252 16.0928 0.619127 15.7785L1.31739 14.4314L2.23541 12.5979C2.39352 12.2843 2.54166 11.9593 2.72311 11.6576C2.8851 11.3895 3.07967 11.1407 3.30275 10.9163C4.05545 10.1732 5.07562 9.78233 6.15084 9.77073C7.05562 9.76098 7.96174 9.77581 8.86672 9.77482L10.1799 9.77226C10.727 9.77122 11.2632 9.74845 11.7971 9.88695C12.4276 10.0505 13.028 10.4219 13.492 10.8574C13.9873 11.3225 14.4691 12.3124 14.8163 12.9269C15.43 14.0128 16.0117 15.117 16.6468 16.1915C16.7619 16.386 16.8715 16.708 17.0689 16.8286C17.4963 17.0902 19.0815 17.425 19.6537 17.5628C20.1476 17.6811 20.6395 17.8071 21.1291 17.9406C21.4703 18.0329 21.8562 18.0949 22.1506 18.293C22.5299 18.5484 22.7365 18.9658 22.7371 19.4044C22.7377 19.7998 22.6006 20.1275 22.3049 20.404C22.0457 20.6464 21.7225 20.7954 21.3553 20.7891C20.8391 20.7803 20.2871 20.5799 19.7879 20.4565C18.9386 20.2468 18.0856 20.0442 17.248 19.7945C16.8592 19.6787 16.4657 19.5658 16.0971 19.3983C15.587 19.1667 15.0832 18.8306 14.6935 18.4396C14.3361 18.081 14.1376 17.6687 13.9076 17.2323C13.6518 16.744 13.3915 16.2578 13.1265 15.774C13.018 15.5776 12.9173 15.3619 12.7899 15.1768C12.5654 15.674 12.2347 16.1525 11.9513 16.6219C11.4868 17.3912 11.0262 18.163 10.5487 18.9249C11.2104 19.4233 11.8928 19.8937 12.56 20.3844C13.3002 20.9288 14.0299 21.488 14.7753 22.0256L15.8994 22.8303C16.155 23.0105 16.4473 23.1821 16.6664 23.4013C16.8595 23.5928 16.9809 23.84 17.0116 24.1044C17.0619 24.543 16.8274 25.436 16.7417 25.9154L16.0081 29.8994C15.9249 30.3619 15.8445 30.8249 15.7671 31.2883C15.7258 31.5318 15.6974 31.7871 15.6347 32.0257C15.5787 32.2388 15.4808 32.4365 15.3361 32.6076C15.1023 32.884 14.7754 33.0621 14.4045 33.0993C14.0025 33.1396 13.6131 33.0186 13.3037 32.7719C13.1637 32.66 13.0483 32.5225 12.9643 32.3675C12.8803 32.2125 12.8294 32.043 12.8146 31.8691C12.7748 31.3959 12.9996 30.5453 13.0969 30.059C13.3224 28.9027 13.5397 27.745 13.7487 26.5859C13.8479 26.0395 14.0167 25.4164 14.0286 24.8681C13.0889 24.1858 12.1608 23.4874 11.2161 22.8116C10.7881 22.5075 10.3625 22.2003 9.93932 21.8901C9.74623 21.7474 9.5285 21.6064 9.35617 21.4419C9.02738 22.6626 8.6376 23.8727 8.25314 25.0782C8.12232 25.4885 8.01709 26.0253 7.82713 26.4035C7.65574 26.7448 7.25031 27.1323 6.99205 27.4272L5.55785 29.0678L3.45094 31.5327C3.13232 31.9045 2.81953 32.2864 2.489 32.6483C2.38738 32.7596 2.27473 32.8539 2.14158 32.9293C1.81679 33.1133 1.42482 33.146 1.06257 33.0559C0.707842 32.968 0.386078 32.7671 0.19582 32.4636C0.0946234 32.3021 0.0975756 32.0511 0 31.9221V31.521C0.119332 31.3527 0.134862 31.1363 0.258992 30.9638C0.363217 30.8187 0.496617 30.6838 0.614818 30.5488L1.326 29.7367C1.90523 29.0736 2.465 28.395 3.05107 27.7373L4.46541 26.1421C4.69137 25.8844 4.97252 25.6145 5.14684 25.3234C5.32064 25.0334 5.51777 24.2767 5.63664 23.9219C6.05391 22.7137 6.45997 21.5019 6.85477 20.2868C6.9539 19.9927 7.05021 19.6978 7.14369 19.402C7.21824 19.1591 7.27594 18.906 7.38352 18.6745C7.4668 18.495 7.58584 18.3258 7.69189 18.158L8.23133 17.2994L10.0888 14.2319L10.7831 13.1078C10.9165 12.8905 11.0619 12.6706 11.1727 12.4419Z" fill="black"/>
<path d="M24.6482 8.51798C24.5587 8.49456 24.4681 8.4645 24.3849 8.42513C24.0271 8.25683 23.7536 7.95991 23.6241 7.59931C23.5635 7.42527 23.5399 7.24143 23.5545 7.05853C23.5691 6.87563 23.6217 6.69736 23.7093 6.53415C23.8806 6.21526 24.156 5.95947 24.5169 5.84917C24.703 5.79221 24.8941 5.77119 25.0888 5.76445C25.6476 5.74508 26.2116 5.7617 26.7708 5.76297C28.0907 5.76596 29.4118 5.78415 30.7316 5.7741C32.4198 5.76107 34.1081 5.75964 35.7964 5.7698L37.4605 5.76936C37.8062 5.76756 38.1577 5.75091 38.5025 5.7685C38.7548 5.78138 38.9962 5.83272 39.2206 5.94644C39.6915 6.18518 39.8298 6.5239 39.9775 6.9828L40.0001 6.98053V7.25439C39.9734 7.30799 39.9556 7.35383 39.9411 7.41157C39.9191 7.5567 39.8886 7.68911 39.8177 7.82086C39.6294 8.171 39.2751 8.39324 38.8927 8.51221C38.8609 9.27913 38.8882 10.0563 38.8847 10.8243C38.8827 11.2459 38.887 11.6655 38.831 12.0845C38.6534 13.4108 38.0456 14.8506 37.1212 15.8622C36.7921 16.2225 36.3909 16.5358 36.0243 16.8615C35.5195 17.3104 35.0066 17.7634 34.4605 18.1666C36.0628 19.0291 36.7833 19.8911 37.6048 21.4371C37.9499 22.0903 38.256 22.7618 38.5216 23.4482C38.9564 24.6054 39.0827 25.8076 38.5128 26.951C38.2971 27.3853 37.9931 27.7742 37.6184 28.0949C37.2438 28.4156 36.806 28.6618 36.3308 28.8189C35.9937 28.9328 35.6431 28.993 35.2872 29.0193C34.7804 29.0566 34.2732 29.0424 33.7654 29.0381C33.1207 29.0316 32.476 29.0286 31.8314 29.0292L29.6927 29.0316C29.1622 29.032 28.6173 29.0477 28.0902 28.9864C27.646 28.9345 27.228 28.8092 26.8253 28.6238C25.8725 28.1819 25.1409 27.398 24.79 26.4427C24.2743 25.0073 24.7073 24.1352 25.2989 22.8482C25.513 22.3829 25.7075 21.9071 25.9409 21.4503C26.5013 20.3542 27.2417 19.2888 28.2989 18.5813C28.5536 18.4108 28.8175 18.2543 29.1124 18.1572C28.898 17.9477 28.6468 17.7614 28.4191 17.5642C28.1245 17.3091 27.847 17.037 27.5546 16.7801C27.1249 16.4023 26.682 16.0406 26.2927 15.6228C25.9804 15.2876 25.7357 14.9193 25.5089 14.5281C24.648 13.0435 24.6476 11.8197 24.6484 10.1808C24.6486 9.63128 24.6128 9.06568 24.6482 8.51798ZM27.4583 8.46536C27.4831 9.14987 27.4659 9.84007 27.4644 10.5252C27.4638 10.8583 27.4523 11.1953 27.4798 11.5275C27.5745 12.6656 28.0806 13.6338 28.9534 14.4117C29.3099 14.7294 29.6835 15.029 30.0361 15.3509C30.5978 15.8638 31.1536 16.4146 31.7607 16.8786C32.1779 16.4669 32.6437 16.0956 33.0945 15.7185C33.4171 15.4486 33.7374 15.1679 34.0542 14.8914C34.4001 14.6054 34.8107 14.3161 35.1058 13.983C35.5945 13.4311 36.012 12.2384 36.0669 11.5228C36.0925 11.1887 36.0757 10.8475 36.072 10.5126L36.0689 9.19336C36.0683 8.95459 36.0415 8.71233 36.0677 8.47458L30.0468 8.47003L28.4335 8.46584C28.1099 8.46616 27.7814 8.48002 27.4583 8.46536ZM31.5275 20.2823C30.6095 20.39 29.7812 20.7409 29.2009 21.4503C28.9341 21.7765 28.765 22.1545 28.5812 22.5263C28.3684 22.9559 28.1592 23.3871 27.9536 23.8198C27.7933 24.15 27.5866 24.4851 27.4706 24.8314C27.4152 24.9968 27.3892 25.168 27.4109 25.3415C27.4306 25.4939 27.4816 25.641 27.561 25.7744C27.6404 25.9078 27.7466 26.0249 27.8736 26.1189C28.0476 26.2491 28.2308 26.3198 28.4474 26.3542C28.8491 26.4175 29.3036 26.3734 29.7122 26.3716L31.9888 26.3669L33.7415 26.3661C34.2046 26.3654 34.7337 26.402 35.1847 26.2963C35.4056 26.2446 35.5958 26.1503 35.7581 25.9972C36.0032 25.7658 36.1218 25.464 36.1187 25.1365C36.1173 24.9815 36.0833 24.8312 36.0259 24.6864C35.9454 24.4837 35.831 24.2894 35.7333 24.0936L35.1808 22.995C34.9558 22.5569 34.7568 22.088 34.4925 21.671C34.3631 21.4656 34.2063 21.2771 34.0259 21.1105C33.3945 20.5263 32.5818 20.2599 31.7091 20.2759C31.6485 20.2771 31.588 20.2793 31.5275 20.2823ZM39.9775 6.9828C39.9077 7.06385 39.9154 7.13275 39.9255 7.23324C39.9314 7.29262 39.9366 7.35207 39.9411 7.41157C39.9556 7.35383 39.9734 7.30799 40.0001 7.25439V6.98053L39.9775 6.9828Z" fill="black"/>
<path d="M39.9774 6.98281L40.0001 6.98053V7.2544C39.9733 7.30799 39.9556 7.35383 39.9411 7.41157C39.9366 7.35208 39.9314 7.29263 39.9255 7.23324C39.9153 7.13276 39.9077 7.06385 39.9774 6.98281Z" fill="black"/>
<path d="M31.5167 21.6991C31.8099 21.6761 32.1169 21.6808 32.4017 21.7583C32.6079 21.8147 32.8292 21.9159 32.9813 22.0638C33.2272 22.303 33.3753 22.6604 33.5364 22.9542C33.9007 23.6173 34.2292 24.3028 34.605 24.9591C33.7761 24.9797 32.9421 24.9642 32.1126 24.9651L30.1466 24.9655C29.78 24.9653 29.3937 24.9412 29.0298 24.9828C29.1599 24.6284 29.3667 24.285 29.5335 23.9444C29.7704 23.4608 30.1208 22.5982 30.4423 22.1994C30.7007 21.8786 31.1134 21.7486 31.5167 21.6991Z" fill="black"/>
</svg>
