<svg width="36" height="38" viewBox="0 0 36 38" fill="none" xmlns="http://www.w3.org/2000/svg">
<path d="M26.8016 0.999939C22.2958 0.999939 18.6206 4.67509 18.6206 9.18097C18.6206 13.6868 22.2958 17.362 26.8016 17.362C31.3075 17.362 34.9827 13.6868 34.9827 9.18097C34.9827 4.67509 31.3075 0.999939 26.8016 0.999939ZM26.8016 16.1034C22.988 16.1034 19.8792 12.9946 19.8792 9.18097C19.8792 5.36732 22.988 2.25856 26.8016 2.25856C30.6153 2.25856 33.7241 5.36732 33.7241 9.18097C33.7241 12.9946 30.6153 16.1034 26.8016 16.1034Z" fill="black" stroke="black"/>
<path d="M26.8017 13.5861C27.1492 13.5861 27.431 13.3044 27.431 12.9568C27.431 12.6093 27.1492 12.3275 26.8017 12.3275C26.4541 12.3275 26.1724 12.6093 26.1724 12.9568C26.1724 13.3044 26.4541 13.5861 26.8017 13.5861Z" fill="black" stroke="black"/>
<path d="M26.8017 4.77582C26.4539 4.77582 26.1724 5.05729 26.1724 5.40513V10.4396C26.1724 10.7875 26.4539 11.0689 26.8017 11.0689C27.1496 11.0689 27.431 10.7875 27.431 10.4396V5.40513C27.431 5.05729 27.1496 4.77582 26.8017 4.77582ZM17.0474 27.5946C16.2923 27.1667 15.4741 26.8268 14.6309 26.5877C16.2671 25.5934 17.3621 23.8188 17.3621 21.7672C17.3621 18.6458 14.8196 16.1034 11.6983 16.1034C8.57692 16.1034 6.03448 18.6458 6.03448 21.7672C6.03448 23.8188 7.14207 25.5934 8.76567 26.5877C4.28498 27.8715 1 31.9872 1 36.8706C1 37.223 1.27686 37.5 1.62931 37.5H10.4397C10.7921 37.5 11.069 37.223 11.069 36.8706C11.069 36.5182 10.7921 36.2413 10.4397 36.2413H2.28382C2.59847 31.3327 6.70159 27.431 11.6983 27.431C13.3597 27.431 14.9959 27.8715 16.4181 28.6896C16.7202 28.8658 17.0977 28.7651 17.274 28.4631C17.4502 28.1609 17.3495 27.7708 17.0474 27.5946ZM7.2931 21.7672C7.2931 19.3381 9.26915 17.362 11.6983 17.362C14.1274 17.362 16.1034 19.3381 16.1034 21.7672C16.1034 24.1963 14.1274 26.1724 11.6983 26.1724C9.26915 26.1724 7.2931 24.1963 7.2931 21.7672Z" fill="black" stroke="black"/>
<path d="M9.47357 23.8394C9.22774 24.0853 9.22774 24.4835 9.47357 24.7293C9.71939 24.9752 10.1176 24.9752 10.3635 24.7293C11.0763 24.0164 12.3202 24.0164 13.0331 24.7293C13.156 24.8522 13.317 24.9137 13.478 24.9137C13.6391 24.9137 13.8001 24.8522 13.923 24.7293C14.1688 24.4835 14.1688 24.0853 13.923 23.8394C12.7357 22.6497 10.6609 22.6497 9.47357 23.8394ZM33.6108 26.4366C33.4976 26.273 33.2962 26.1723 33.0948 26.1723H20.5086C20.2443 26.1723 20.0051 26.3359 19.9171 26.5751L17.7145 32.4654H11.6983C11.3458 32.4654 11.069 32.7423 11.069 33.0947C11.069 35.5239 13.045 37.4999 15.4741 37.4999H29.319C29.5833 37.4999 29.8224 37.3363 29.9105 37.0845L30.4392 35.6623C30.5524 35.3476 30.3888 34.9827 30.0616 34.8568C29.7343 34.7309 29.3819 34.9072 29.2561 35.2344L28.8785 36.2413H17.6389L18.7214 33.359C18.734 33.3465 18.734 33.3213 18.7465 33.3087L20.9491 27.4309H32.1887L31.0307 30.5271C30.9174 30.8418 31.0811 31.2068 31.3957 31.3326C31.7355 31.4585 32.0879 31.2823 32.2138 30.9551L33.6863 27.0156C33.7619 26.8268 33.7241 26.6128 33.6108 26.4366ZM16.2923 36.2413H15.4741C13.9512 36.2413 12.68 35.1589 12.3905 33.724H17.2362L16.2923 36.2413ZM18.1075 3.58229C17.6497 3.54296 17.1912 3.51715 16.7328 3.51715C8.05762 3.51715 1 10.5748 1 19.2499C1 22.0154 1.72703 24.7355 3.10303 27.1163C3.21979 27.3179 3.4312 27.4309 3.64876 27.4309C3.75569 27.4309 3.86385 27.4039 3.9628 27.3461C4.26393 27.1728 4.36718 26.7881 4.19326 26.487C2.92726 24.2979 2.25862 21.7954 2.25862 19.2499C2.25862 11.2686 8.75146 4.77577 16.7328 4.77577C17.1556 4.77577 17.5784 4.80035 18.0006 4.836C18.3546 4.8612 18.6514 4.60861 18.6809 4.26261C18.7104 3.916 18.4535 3.61179 18.1075 3.58229ZM30.7681 24.8781C30.8375 24.9026 30.9082 24.9137 30.9777 24.9137C31.237 24.9137 31.4798 24.7527 31.5713 24.4946C32.1644 22.8144 32.4655 21.0493 32.4655 19.2499C32.4655 18.7914 32.4397 18.333 32.4004 17.8751C32.3709 17.5291 32.0691 17.2587 31.7201 17.3018C31.3741 17.3312 31.1172 17.6355 31.1467 17.9821C31.1823 18.4043 31.2069 18.8271 31.2069 19.2499C31.2069 20.9068 30.9303 22.5292 30.384 24.0742C30.2685 24.4024 30.4405 24.7625 30.7681 24.8781Z" fill="black" stroke="black"/>
<path d="M30.7423 33.7241C31.0899 33.7241 31.3717 33.4423 31.3717 33.0948C31.3717 32.7472 31.0899 32.4655 30.7423 32.4655C30.3948 32.4655 30.113 32.7472 30.113 33.0948C30.113 33.4423 30.3948 33.7241 30.7423 33.7241Z" fill="black" stroke="black"/>
</svg>
