<svg width="40" height="40" viewBox="0 0 40 40" fill="none" xmlns="http://www.w3.org/2000/svg">
<path d="M20.9614 14.168C21.3676 14.1405 21.7561 14.1872 22.1093 14.4039C22.4637 14.6215 22.7247 15.0039 22.8196 15.4069C22.9178 15.8247 22.8561 16.2868 22.6247 16.6512C22.3548 17.0762 21.9778 17.284 21.4964 17.3881C21.0151 17.4316 20.5782 17.3827 20.1831 17.0814C19.8419 16.8212 19.6184 16.4739 19.5635 16.0453C19.504 15.5813 19.6071 15.0986 19.8995 14.7276C20.1653 14.39 20.5409 14.2166 20.9614 14.168Z" fill="#F28B65"/>
<path d="M15.3813 14.1482C15.8006 14.1242 16.2136 14.1828 16.5645 14.4282C16.745 14.5544 16.8987 14.7152 17.0164 14.9013C17.1342 15.0874 17.2138 15.2951 17.2506 15.5122C17.323 15.9219 17.2474 16.3547 17.0048 16.6966C16.7209 17.0968 16.319 17.3166 15.8424 17.3975C15.3473 17.4443 14.9357 17.3598 14.5388 17.0486C14.1959 16.7797 13.9836 16.4214 13.9319 15.9872C13.877 15.5259 13.9895 15.0743 14.2831 14.7104C14.5532 14.3758 14.9601 14.1907 15.3813 14.1482Z" fill="#F28B65"/>
<path d="M9.69959 14.1466C10.1399 14.1083 10.574 14.1611 10.9497 14.4093C11.1279 14.5277 11.2809 14.6802 11.3998 14.8582C11.5186 15.0361 11.601 15.2358 11.6422 15.4458C11.6848 15.6613 11.6844 15.883 11.6411 16.0983C11.5979 16.3136 11.5126 16.5182 11.3901 16.7005C11.2665 16.8829 11.1075 17.0385 10.9224 17.1579C10.7373 17.2774 10.53 17.3582 10.3129 17.3956C9.82799 17.4474 9.38672 17.3988 8.98258 17.1061C8.62122 16.8444 8.40153 16.4758 8.33307 16.0358C8.29795 15.8094 8.30788 15.5783 8.36228 15.3558C8.41669 15.1332 8.51451 14.9236 8.65012 14.739C8.91317 14.3812 9.26874 14.2121 9.69959 14.1466Z" fill="#F28B65"/>
<path d="M16.9381 19.4041C17.6192 19.3927 18.2953 19.5973 18.7909 20.0811C19.333 20.6104 19.5607 21.268 19.5723 22.0143C19.5789 22.628 19.5795 23.2418 19.5742 23.8555C19.5748 24.3955 19.633 25.0086 19.5093 25.5346C19.4055 25.9839 19.181 26.3963 18.8601 26.7274C18.041 27.5639 17.1776 27.4863 16.0994 27.491L14.2812 27.4973C13.5561 27.4973 12.916 27.3151 12.3825 26.8041C11.8887 26.3313 11.6542 25.7815 11.6446 25.0998C11.6364 24.5106 11.6439 23.9205 11.6423 23.3311C11.6406 22.6723 11.5714 21.8783 11.7468 21.2422C11.8625 20.8268 12.0831 20.4482 12.3874 20.1428C13.1914 19.3256 14.0933 19.4071 15.1452 19.4087C15.7428 19.4119 16.3405 19.4104 16.9381 19.4041ZM14.1404 21.6028C14.0175 21.6639 13.906 21.7358 13.8566 21.8707C13.7805 22.0791 13.7777 24.8545 13.8415 25.1527C13.9424 25.2801 14.0267 25.3703 14.1973 25.3895C14.6251 25.4371 15.092 25.4045 15.5234 25.4055C16.0279 25.4067 16.5675 25.4447 17.0668 25.3875C17.1823 25.3283 17.2572 25.2412 17.3379 25.1422C17.4007 24.6334 17.367 24.0906 17.3705 23.5778C17.3738 23.1995 17.3734 22.8212 17.3693 22.443C17.3677 22.2481 17.3773 22.0461 17.3584 21.8526C17.2704 21.7332 17.2174 21.6379 17.0588 21.6127C16.8187 21.5748 16.5503 21.5955 16.3065 21.5953L14.8956 21.6008C14.6468 21.6024 14.3885 21.6182 14.1404 21.6028Z" fill="#F28B65"/>
<path d="M27.2326 23.3226C27.3328 23.2853 27.9305 23.0527 27.9805 23.0008C28.1879 22.7849 27.7902 21.3041 28.2875 20.6785C28.4764 20.441 28.7514 20.3127 29.0486 20.2824C29.5016 20.2361 29.99 20.2791 30.4461 20.2803C30.8574 20.2814 31.5498 20.2359 31.9357 20.3055C32.1305 20.3404 32.3174 20.4185 32.4697 20.5465C32.6377 20.6875 32.7537 20.8824 32.81 21.0933C32.8852 21.3746 32.858 21.6902 32.8574 21.9795C32.8564 22.3424 32.8494 22.7074 32.8769 23.0695C33.1455 23.1422 33.3906 23.2599 33.6535 23.3457C34.1629 22.9197 34.8666 21.9281 35.5367 21.8408C35.8553 21.7994 36.1602 21.8883 36.4117 22.0855C36.7906 22.3826 37.1271 22.7795 37.4646 23.1248C37.7351 23.4014 38.0826 23.6838 38.291 24.0094C38.3877 24.1601 38.451 24.343 38.4699 24.5209C38.4883 24.6939 38.4689 24.8633 38.4033 25.0254C38.233 25.4474 37.4105 26.4299 37.0811 26.8408C37.1742 27.0527 37.2613 27.2601 37.325 27.4834C37.809 27.4695 38.7541 27.4004 39.2004 27.5025C39.6422 27.6037 39.7799 27.8603 39.9998 28.2119V31.7342V40H32.0246H28.8258C28.657 39.8873 28.4723 39.8324 28.3299 39.6771C28.2117 39.548 28.1289 39.3797 28.0904 39.2096C28.0094 38.8523 28.0521 37.564 28.0646 37.1402C27.7687 37.0254 27.482 36.8605 27.2025 36.7103L26.4184 37.5043C26.2256 37.6992 26.0338 37.9158 25.809 38.0738C25.6926 38.1566 25.5616 38.2166 25.4228 38.2506C25.2922 38.2835 25.1562 38.2896 25.023 38.2687C24.8899 38.2478 24.7624 38.2003 24.648 38.1289C24.5778 38.0839 24.5118 38.0326 24.451 37.9756C24.3131 37.8457 24.1887 37.6988 24.057 37.5625C23.806 37.3023 23.5482 37.048 23.2934 36.7914C23.0449 36.541 22.7447 36.3006 22.5289 36.0238C22.4224 35.89 22.3486 35.7333 22.3133 35.566C22.1963 34.9955 22.5441 34.6324 22.9053 34.2615C23.0779 34.083 23.253 33.9068 23.4305 33.7332C23.5281 33.6379 23.6725 33.5314 23.7406 33.4144C23.7535 33.392 23.7621 33.3625 23.7605 33.3363C23.757 33.2734 23.4601 32.6877 23.4125 32.5355C22.6664 32.4644 21.6217 32.7527 21.0248 32.1976C20.7346 31.9279 20.7041 31.6121 20.6937 31.2396C20.6787 30.691 20.6912 30.14 20.6871 29.5912C20.6842 29.1902 20.6328 28.7236 20.7066 28.3318C20.7434 28.1381 20.8516 27.9359 20.9885 27.7967C21.126 27.657 21.2926 27.5617 21.4818 27.5111C21.9127 27.3959 22.906 27.4752 23.4103 27.4678C23.5111 27.1736 23.6621 26.8994 23.7883 26.6162C23.7558 26.5913 23.7242 26.5653 23.6934 26.5385C23.4385 26.3172 22.5887 25.4705 22.4432 25.1973C22.3777 25.0744 22.3488 24.934 22.3406 24.7959C22.3195 24.4402 22.4357 24.1695 22.6703 23.9062C23.0355 23.4957 23.4527 23.1262 23.8437 22.7406C24.1033 22.4846 24.3576 22.1473 24.6703 21.9558C24.8121 21.8691 24.9865 21.833 25.1512 21.824C25.3566 21.8129 25.5572 21.8451 25.7418 21.9396C26.1094 22.1277 26.8685 22.9951 27.2326 23.3226ZM30.2125 22.4584C30.2102 22.4683 30.2078 22.4785 30.2057 22.4885C30.1805 22.6053 30.1934 22.7543 30.1924 22.8746C30.1873 23.5215 30.3283 24.2668 29.7248 24.6949C29.4064 24.9207 28.8373 24.9785 28.4578 25.1328C28.083 25.2849 27.74 25.5603 27.3533 25.6697C27.1551 25.7253 26.9467 25.7351 26.7441 25.6984C26.1863 25.593 25.6619 24.8267 25.2307 24.4607C25.1305 24.5826 25.0223 24.6887 24.9064 24.7957L25.4549 25.3402C25.7932 25.6769 26.1914 26.0361 26.1943 26.5527C26.1956 26.7168 26.1664 26.8797 26.1082 27.0332C26.0371 27.2181 25.9172 27.3889 25.8182 27.5598C25.6725 27.8109 25.5338 28.0785 25.4289 28.349C25.2926 28.7006 25.2658 29.1291 24.9894 29.4056C24.6762 29.7191 24.3066 29.6902 23.8976 29.6869C23.5885 29.6844 23.2449 29.7133 22.9422 29.6601C22.9473 29.8858 22.9507 30.1116 22.9525 30.3373C23.3568 30.3303 24.2324 30.2906 24.5916 30.3896C24.7371 30.4299 24.8625 30.5025 24.9728 30.6055C25.0553 30.6824 25.1283 30.7748 25.1781 30.8764C25.3135 31.1525 25.3418 31.4805 25.4605 31.7668C25.5461 31.9736 25.6494 32.1795 25.7598 32.3742C25.9467 32.7037 26.2441 33.0535 26.2564 33.4461C26.2684 33.8275 26.0781 34.0865 25.8266 34.3447C25.5299 34.6492 25.2027 34.9367 24.9268 35.2598C25.0283 35.3951 25.1391 35.5142 25.276 35.6142L26.057 34.8457C26.2185 34.6894 26.3738 34.5088 26.5717 34.3978C26.7012 34.325 26.8435 34.2945 26.9914 34.2926C27.3918 34.2873 27.6908 34.5318 28.0197 34.7217C28.1868 34.8187 28.3618 34.9015 28.5428 34.9691C28.7086 35.0314 28.8771 35.0889 29.0494 35.1305C29.2396 35.1764 29.4467 35.2058 29.6268 35.2834C29.7451 35.3344 29.8477 35.4019 29.9371 35.4949C30.2838 35.8558 30.2144 36.4055 30.2144 36.8648C30.2163 37.1546 30.2148 37.4443 30.21 37.734L30.7057 37.7342L30.709 37.4123L30.7088 36.6859C30.7062 36.2666 30.6643 35.8273 30.9824 35.4998C31.2963 35.1767 32.0478 35.0949 32.5016 34.8889C32.6837 34.8046 32.8598 34.7076 33.0285 34.5988C33.166 34.5094 33.3062 34.3992 33.456 34.3322C33.5663 34.2834 33.6853 34.2577 33.8059 34.2566C34.3217 34.2498 34.6258 34.6502 34.9543 34.9836C35.1777 35.2101 35.3971 35.4402 35.6365 35.65C35.749 35.5252 35.8814 35.4144 35.9889 35.2873C35.7098 35.048 34.8189 34.1877 34.643 33.8916C34.5752 33.7777 34.5432 33.648 34.534 33.5166C34.5025 33.067 34.7768 32.8305 34.9857 32.4769C35.1358 32.2267 35.2556 31.9595 35.3428 31.681C35.4506 31.3281 35.4377 30.9424 35.7019 30.657C35.9314 30.4088 36.2107 30.3326 36.5383 30.3269C36.9996 30.3191 37.4609 30.3379 37.9223 30.3363C37.8941 30.1156 37.9094 29.8771 37.9174 29.6549C37.4748 29.6777 36.4758 29.7236 36.0955 29.6006C35.967 29.5588 35.8469 29.4803 35.7471 29.3896C35.4072 29.0818 35.4732 28.5904 35.3166 28.1904C35.2312 27.9724 35.1223 27.7492 35.0049 27.5474C34.8268 27.2414 34.5865 26.9758 34.5715 26.6041C34.5578 26.2629 34.7355 26.0035 34.9609 25.768C35.1623 25.5574 35.7914 24.9982 35.9072 24.792C35.8445 24.6541 35.6752 24.5238 35.5687 24.4158C35.3035 24.6976 34.5592 25.4818 34.2701 25.6533C34.1393 25.731 34.0002 25.7642 33.8492 25.7697C33.7225 25.7744 33.5963 25.7588 33.4769 25.7146C33.1424 25.5912 32.8445 25.3367 32.5148 25.1873C32.0613 24.9816 31.4098 24.9297 31.0469 24.5908C30.8086 24.3683 30.731 24.1172 30.7215 23.798C30.7084 23.3621 30.7086 22.9076 30.7262 22.4719C30.5703 22.475 30.4105 22.4859 30.256 22.4646L30.2289 22.4609C30.2234 22.4603 30.218 22.4594 30.2125 22.4584ZM39.9998 31.7342C39.9928 31.7445 39.9857 31.7549 39.9789 31.7656C39.9225 31.8537 39.8943 31.9572 39.8416 32.0476C39.7012 32.2887 39.4506 32.4525 39.1816 32.5164C38.8564 32.5937 37.7019 32.5752 37.325 32.5553C37.2166 32.8156 37.1057 33.0756 37.0039 33.3385C37.2596 33.5365 38.232 34.5365 38.3943 34.7889C38.4752 34.9148 38.5172 35.032 38.5357 35.1799C38.5717 35.4664 38.5271 35.7738 38.3434 36.0049C38.1215 36.2838 37.8451 36.5271 37.6008 36.7877C37.2512 37.1605 36.6879 37.8494 36.2879 38.1275C36.1586 38.2174 35.9953 38.2676 35.8398 38.2848C35.5387 38.318 35.2564 38.2453 35.0184 38.0527C34.8064 37.8816 34.6359 37.6517 34.4477 37.4555C34.2072 37.2047 33.9256 36.9611 33.7135 36.6875C33.3926 36.8699 33.0742 37.0578 32.7275 37.1881L32.7332 38.306C32.7338 38.6209 32.7605 38.966 32.6789 39.2728C32.6348 39.4385 32.5551 39.5824 32.4353 39.7053C32.3166 39.8275 32.1674 39.9101 32.0246 40H39.9998V31.7342Z" fill="#F28B65"/>
<path d="M30.1751 26.8244C30.9721 26.7749 31.7596 27.0192 32.3886 27.5111C32.7275 27.7751 33.0104 28.1039 33.2209 28.4783C33.4315 28.8527 33.5653 29.2653 33.6148 29.692C33.7124 30.5064 33.464 31.3961 32.9503 32.0389C32.3691 32.766 31.5755 33.1982 30.6574 33.3025C30.646 33.3037 30.6347 33.3049 30.6232 33.3059C29.7949 33.3768 28.9076 33.0291 28.2798 32.5033C27.6648 31.9885 27.2699 31.1887 27.2023 30.393C27.1263 29.499 27.3622 28.6369 27.9517 27.9502C28.5163 27.2975 29.3149 26.8932 30.1751 26.8244ZM30.33 29.0113C30.0117 29.042 29.7601 29.157 29.554 29.4062C29.3898 29.6049 29.3085 29.8488 29.3314 30.1064C29.3572 30.3973 29.5056 30.6812 29.7339 30.8637C29.955 31.0404 30.2042 31.1012 30.481 31.1043C30.7826 31.076 31.046 30.9498 31.24 30.7137C31.422 30.492 31.4953 30.2158 31.4626 29.9322C31.4292 29.6424 31.2872 29.3748 31.0511 29.1996C30.8536 29.0533 30.5757 28.9766 30.33 29.0113Z" fill="#F28B65"/>
<path d="M0 0H8.24797H8.63035H22.5621H23.0246C23.0357 0.00654348 23.0469 0.0132171 23.058 0.0196305C23.4424 0.23991 23.6766 0.229781 23.8336 0.760701C23.9338 1.09996 23.8984 2.58563 23.8799 3.01254C24.4846 2.96445 25.1832 3.00695 25.7977 3.00623L27.0197 3.00453C28.1764 3.00348 29.0283 3.08711 29.9494 3.87236C30.7338 4.54086 31.2115 5.42529 31.2861 6.45668C31.3359 7.14305 31.2984 7.85514 31.2969 8.54373L31.2926 12.4121L31.2947 15.6553C31.2951 16.1974 31.3334 16.8142 31.2807 17.3474C31.2541 17.6162 31.2029 17.8387 31.0223 18.0485C30.9293 18.1573 30.8149 18.2459 30.6863 18.3086C30.5576 18.3714 30.4174 18.4071 30.2744 18.4134C29.9703 18.4254 29.6549 18.3157 29.4365 18.1013C29.3016 17.9689 29.1816 17.7715 29.1488 17.5837C29.0932 17.265 29.1137 16.9249 29.1156 16.6021L29.1234 15.2757L29.1187 12.7471C29.117 12.4924 29.1006 12.2367 29.102 11.9824C29.1023 11.9185 29.1076 11.855 29.1145 11.7915L9.9015 11.7812L4.57299 11.781H3.04564C2.77045 11.7814 2.47518 11.803 2.20242 11.771L2.19953 23.0932L2.19943 26.5088C2.19941 27.0008 2.15842 27.7244 2.22037 28.1877C2.26523 28.523 2.43104 28.8596 2.66986 29.0988C2.90301 29.3324 3.21885 29.5148 3.54713 29.5664C3.97471 29.6334 4.45912 29.5969 4.89256 29.5963L7.2926 29.5912L15.4966 29.5891C16.012 29.5883 17.7722 29.5219 18.1608 29.658C18.5799 29.8047 18.8921 30.2227 18.8918 30.6678C18.8915 30.9715 18.7772 31.248 18.5603 31.4602C18.3693 31.6471 18.1589 31.7379 17.895 31.7691C17.3873 31.8297 16.8392 31.782 16.3267 31.7816L13.1501 31.7818L7.09174 31.7777C5.96732 31.7779 4.83918 31.7977 3.71506 31.776C3.22119 31.7683 2.7337 31.6633 2.2805 31.4669C1.8273 31.2705 1.41732 30.9866 1.07404 30.6314C0.600359 30.1412 0.263322 29.5783 0.121613 28.9074C0.08891 28.7525 0.0799668 28.4932 0 28.3617V6.33506V0ZM14.5068 5.1798C13.3999 5.21352 12.2877 5.1915 11.1802 5.19133L10.2168 5.19187C10.034 5.19209 9.83844 5.2077 9.65797 5.17752C9.63506 5.17369 9.61229 5.17004 9.58943 5.16582C9.60027 5.50543 9.58977 5.84645 9.58805 6.18623C9.58658 6.47393 9.61834 6.79211 9.55193 7.07348C9.51068 7.2483 9.41814 7.41037 9.29621 7.54162C9.20535 7.64046 9.09544 7.71991 8.97309 7.77518C8.85073 7.83045 8.71847 7.86041 8.58424 7.86326C8.27522 7.87193 7.95539 7.74508 7.73424 7.5293C7.60057 7.39887 7.50758 7.23971 7.45535 7.06078C7.36486 6.75068 7.39527 5.6715 7.39777 5.29301C7.39826 5.2536 7.40028 5.21423 7.40383 5.17498C7.28199 5.17803 7.15813 5.17695 7.03668 5.18627L5.05102 5.18725C4.55266 5.18631 3.86914 5.13047 3.40061 5.25029C3.12242 5.32143 2.86992 5.4776 2.66906 5.68141C2.46975 5.88165 2.32842 6.13215 2.26008 6.40629C2.12742 6.924 2.19074 7.83213 2.19641 8.39055C2.20018 8.76396 2.18826 9.1383 2.19455 9.51133C2.19485 9.53072 2.19565 9.5501 2.19693 9.56945L21.7465 9.57574L26.7082 9.57229C27.5148 9.57213 28.324 9.55453 29.1305 9.57379C29.0922 9.27531 29.1125 8.96144 29.1148 8.66064C29.1184 8.20741 29.1192 7.75415 29.1172 7.3009C29.116 6.98656 29.1262 6.67012 29.0506 6.36266C28.9031 5.9057 28.6613 5.56908 28.2293 5.34615C28.0848 5.27162 27.9309 5.22875 27.7699 5.20701C27.4055 5.15775 27.0182 5.17951 26.6506 5.18074L24.7572 5.19541C24.477 5.19719 24.1611 5.226 23.8873 5.16928C23.9148 5.55732 23.9293 6.7408 23.8461 7.07818C23.8102 7.22391 23.723 7.37106 23.625 7.48244C23.432 7.70141 23.1422 7.83059 22.852 7.84506C22.6975 7.85155 22.5434 7.82746 22.3983 7.77418C22.2532 7.7209 22.1201 7.63948 22.0066 7.53459C21.7295 7.27824 21.6584 6.9615 21.649 6.60172C21.6367 6.13416 21.6445 5.66414 21.6436 5.19631C21.1518 5.19016 16.8384 5.16316 16.7824 5.19336C16.7443 5.34494 16.7528 5.51025 16.752 5.66566L16.7489 6.34701C16.7453 6.88441 16.7274 7.41742 16.1987 7.72254C16.0697 7.79588 15.9274 7.84249 15.7801 7.8596C15.6328 7.87671 15.4835 7.86397 15.3412 7.82213C15.0569 7.74051 14.7979 7.5442 14.6549 7.28408C14.6028 7.18949 14.5658 7.08975 14.5481 6.98309C14.4897 6.63109 14.5158 6.24262 14.5117 5.886C14.5091 5.65428 14.4871 5.41025 14.5068 5.1798ZM8.63035 0C8.64018 0.00605785 8.64994 0.0122417 8.65984 0.0181735C8.75332 0.0741537 8.86678 0.102548 8.96656 0.146935C9.23352 0.265705 9.4233 0.510492 9.50014 0.790092C9.58801 1.10986 9.54945 1.49366 9.5492 1.82398L9.54582 3.01244L21.7195 3.00725C21.6979 2.62426 21.7047 2.23826 21.7025 1.85464C21.7008 1.52919 21.6645 1.15827 21.7369 0.840145C21.7766 0.666451 21.8562 0.499459 21.9746 0.365357C22.1395 0.178199 22.3666 0.134671 22.5621 0H8.63035ZM0 0V6.33506C0.108134 6.17484 0.122595 5.92531 0.177841 5.74064C0.364164 5.11783 0.734336 4.49164 1.197 4.03504C1.62319 3.61535 2.15102 3.31346 2.72885 3.15889C3.56205 2.93305 4.44666 3.00262 5.3027 3.00291C5.99779 3.00312 6.69314 2.99746 7.38818 3.00527C7.36506 2.59354 7.36125 1.07624 7.451 0.75251C7.59039 0.249697 7.84943 0.230158 8.23396 0.00827299C8.23867 0.00556561 8.2433 0.00275766 8.24797 0H0Z" fill="#F28B65"/>
</svg>
