<svg width="40" height="39" viewBox="0 0 40 39" fill="none" xmlns="http://www.w3.org/2000/svg">
<path d="M13.6162 0H14.7428C14.935 0.0903552 15.1996 0.0831391 15.4101 0.128399C15.9323 0.236223 16.4371 0.410294 16.9111 0.645989C17.6816 1.02212 18.3653 1.54234 18.9216 2.17582C19.4779 2.80929 19.8955 3.54312 20.1497 4.33379C20.2765 4.71859 20.3559 5.13612 20.3948 5.53816C20.4395 5.99844 20.4165 6.47451 20.4149 6.93668C20.4126 7.65152 20.4526 8.38913 20.3134 9.09391C20.1925 9.70603 19.9466 10.3332 19.6417 10.8841C18.9119 12.2031 17.6397 13.2915 16.1389 13.7345C14.4674 14.2278 12.7162 14.1036 11.1645 13.3145C9.59108 12.5144 8.50829 11.2186 7.99372 9.59543C7.89813 9.29392 7.82926 8.99283 7.79557 8.67902C7.74672 8.22402 7.77082 7.76568 7.77022 7.30901C7.76915 6.4786 7.72137 5.65369 7.89536 4.83482C8.02468 4.2447 8.24413 3.676 8.54666 3.14699C9.344 1.76233 10.6719 0.727289 12.2511 0.259569C12.5113 0.186051 12.7761 0.128388 13.044 0.0869265C13.2271 0.0592681 13.4204 0.0593202 13.5978 0.00585548C13.604 0.00399538 13.6101 0.00195182 13.6162 0ZM13.8064 2.23028C12.8401 2.28214 11.8331 2.76967 11.1906 3.45869C10.5891 4.09111 10.2281 4.89883 10.1656 5.75152C10.138 6.11344 10.1534 6.4851 10.1531 6.8482C10.1527 7.31049 10.1322 7.78306 10.1631 8.24434C10.1933 8.73694 10.3275 9.21861 10.5574 9.6604C10.7873 10.1022 11.1082 10.495 11.501 10.8151C11.9025 11.1515 12.37 11.408 12.8762 11.57C13.3825 11.7319 13.9174 11.7959 14.4498 11.7582C14.9665 11.7134 15.4687 11.5712 15.9276 11.3397C16.3864 11.1081 16.7927 10.7919 17.1229 10.4094C18.0824 9.31626 18.0538 8.36971 18.0492 7.04168C18.0476 6.58345 18.0654 6.12025 18.0218 5.66372C17.9225 4.62369 17.4208 3.74473 16.5802 3.07834C15.7465 2.4175 14.8765 2.19282 13.8064 2.23028Z" fill="black"/>
<path d="M30.5131 0H31.9711H40V7.82657V9.03286C39.9217 9.14797 39.8741 9.77355 39.8368 9.95226C39.6959 10.6295 39.4907 11.2977 39.1707 11.9183C38.9553 12.3366 38.725 12.7503 38.4491 13.1356C37.4059 14.592 35.828 15.7815 34.075 16.3497C32.6846 16.7991 31.1998 16.9144 29.7518 16.6852C29.4332 16.6378 29.1182 16.5874 28.8071 16.5044C28.2198 16.3477 27.6452 16.1124 27.0991 15.8548C25.4532 15.0634 24.1121 13.7936 23.2686 12.2277C23.0836 11.889 22.9141 11.5503 22.786 11.1876C22.0086 8.98808 22.1916 6.70501 23.2686 4.62918C24.2793 2.68059 26.3545 1.02017 28.5338 0.393204C28.86 0.299323 29.1987 0.211051 29.5352 0.158433C29.8409 0.110612 30.2053 0.103892 30.4967 0.00586978C30.5022 0.00400948 30.5077 0.0019566 30.5131 0ZM30.9491 2.30518C29.2735 2.36204 27.5916 3.05752 26.4448 4.23896C25.3008 5.41726 24.6282 6.99442 24.6998 8.6123C24.7694 10.1759 25.4645 11.7458 26.6791 12.8104C28.0782 14.0364 29.4596 14.5259 31.3547 14.5417C33.1987 14.4796 34.6411 13.8512 35.8979 12.5545C36.9989 11.4187 37.6387 9.80421 37.5704 8.25178C37.5361 7.418 37.3272 6.59926 36.9561 5.84401C36.5851 5.08876 36.0593 4.41235 35.41 3.85479C34.1894 2.80479 32.5899 2.24918 30.9491 2.30518ZM31.9711 0C31.9809 0.00467777 31.9905 0.00967012 32.0004 0.0140333C32.178 0.0919756 32.4641 0.088403 32.6631 0.125081C33.0725 0.200474 33.4815 0.289724 33.8766 0.417485C35.0928 0.809852 36.2076 1.44526 37.147 2.28147C38.0865 3.11767 38.8289 4.13551 39.325 5.2673C39.5536 5.78489 39.711 6.32008 39.8258 6.87041C39.8668 7.06674 39.9088 7.70355 40 7.82657V0H31.9711Z" fill="black"/>
<path d="M30.9801 3.77754C31.0188 3.77603 31.0575 3.77536 31.0961 3.77554C31.4024 3.77801 31.7239 3.90786 31.9354 4.11835C32.0739 4.25443 32.1702 4.42452 32.2137 4.60975C32.2969 4.95939 32.2477 5.38319 32.2491 5.74219C32.251 6.27487 32.268 6.80733 32.2567 7.34003C32.7991 7.33 33.344 7.34061 33.8868 7.34362C34.2335 7.34554 34.6169 7.32016 34.9585 7.37491C35.1391 7.40258 35.3112 7.46755 35.4629 7.56531C35.5881 7.64645 35.6949 7.75084 35.777 7.87227C35.859 7.99369 35.9147 8.12966 35.9407 8.27209C35.9948 8.56319 35.9323 8.88788 35.7508 9.12976C35.5534 9.39308 35.2723 9.508 34.9493 9.55677C34.0776 9.58547 33.1977 9.56891 32.3252 9.5648C31.885 9.56273 31.4096 9.59823 30.9737 9.54908C30.7973 9.52921 30.6272 9.491 30.4766 9.3982C30.253 9.26046 30.0383 9.04822 29.9817 8.7916C29.9022 8.43229 29.9311 8.04276 29.9323 7.67683L29.937 6.29509C29.9379 5.8065 29.8926 5.19326 29.9522 4.72056C29.9749 4.54224 30.026 4.4021 30.1301 4.25202C30.3362 3.95498 30.6301 3.84301 30.9801 3.77754Z" fill="black"/>
<path d="M0 23.3247C0.00493494 23.3153 0.0101825 23.3062 0.0148048 23.2966C0.115705 23.0901 0.112604 22.6914 0.160778 22.4522C0.235291 22.0825 0.346148 21.7004 0.474783 21.3449C1.35229 18.9186 2.96256 16.9226 5.32326 15.6646C5.67522 15.4771 6.0299 15.2985 6.40279 15.1518C7.19852 14.8387 9.49115 14.2317 10.2623 14.5449C10.6112 14.6866 10.7692 15.1048 10.9518 15.3948C11.0565 15.5608 11.1721 15.7203 11.298 15.8722C12.2235 16.9784 13.8252 17.4778 15.2312 16.9815C16.0478 16.6932 16.7969 16.081 17.2272 15.3584C17.3757 15.109 17.4772 14.8206 17.7261 14.6425C17.972 14.4666 18.343 14.4862 18.6347 14.4943C19.8465 14.5279 21.1076 14.8424 22.2092 15.3211C24.3008 16.2301 25.948 17.8451 26.9969 19.7853C27.1824 20.1287 27.3605 20.4721 27.5023 20.8345C27.6773 21.282 27.8318 21.7447 27.9477 22.2095C28.1756 22.2651 28.4109 22.3098 28.632 22.3861C29.2305 22.5927 29.7209 23.0139 30.0436 23.5338C30.3068 23.9579 30.4051 24.4468 30.3844 24.9358C30.3564 25.5961 30.1758 26.2719 30.0484 26.9203C29.8885 27.7386 29.7424 28.5593 29.6104 29.3822L28.9043 33.6C28.8062 34.2465 28.7009 34.8921 28.5883 35.5364C28.5391 35.8192 28.509 36.1159 28.4344 36.3928C28.2617 37.0339 27.7926 37.6124 27.1922 37.942C27.0813 38.003 26.957 38.0667 26.8355 38.1046C26.6965 38.1479 26.509 38.1661 26.3883 38.2436H9.04113H0V30.4572V23.3247ZM7.43416 24.4492C7.27772 24.5117 7.21647 24.5922 7.14641 24.7373C7.16449 25.0874 7.25381 25.4424 7.31604 25.7873L7.63643 27.6108L8.23742 31.0408C8.32861 31.5593 8.38346 32.0977 8.5043 32.6092C10.5758 32.5947 12.6473 32.5912 14.7189 32.5989L20.8338 32.595L24.3773 32.601C24.9766 32.6021 25.5875 32.6267 26.1855 32.5993C26.3168 32.5933 26.4713 32.5957 26.5699 32.5027C26.7533 32.3296 26.7516 31.9309 26.7943 31.6983C27.0459 30.1473 27.3096 28.5982 27.5856 27.051L27.8027 25.7494C27.8512 25.4684 27.9158 25.1817 27.9436 24.8985C27.9529 24.803 27.9723 24.6215 27.9041 24.548C27.848 24.4877 27.7648 24.4712 27.6854 24.4623C27.1551 24.4031 26.5852 24.4412 26.05 24.4423L23.1531 24.4441L12.8029 24.4488C11.4549 24.4645 10.1066 24.464 8.75859 24.4473C8.47709 24.4442 8.19556 24.4438 7.91404 24.4462C7.75607 24.4481 7.59147 24.4613 7.43416 24.4492ZM9.05938 16.7754C7.13635 17.006 5.34383 18.0939 4.16574 19.5451C3.21652 20.7145 2.57998 22.0972 2.42072 23.5753C2.36389 24.1028 2.37072 24.6344 2.36656 25.164C2.36175 25.9088 2.36277 26.6537 2.36963 27.3985C2.3778 27.9335 2.37983 28.4686 2.3757 29.0037C2.37125 29.3717 2.33031 29.7751 2.38006 30.1394C2.43232 30.508 2.63404 30.8422 2.9417 31.0699C3.13956 31.2149 3.36864 31.3161 3.61238 31.3661C3.93127 31.4294 4.28719 31.4001 4.61166 31.3976C5.04701 31.3941 5.48502 31.3909 5.92016 31.4034C5.66963 29.8309 5.35564 28.2644 5.07971 26.6954C4.96572 26.0473 4.73678 25.257 4.77387 24.6154C4.80318 24.1086 4.9759 23.6572 5.29238 23.2498C5.46084 23.033 5.66377 22.8599 5.87824 22.6866C5.87998 22.2276 5.82297 21.1253 5.93254 20.7488C5.98264 20.578 6.07812 20.4225 6.20969 20.2975C6.41801 20.0979 6.70479 19.975 7.00127 19.9756C7.32697 19.9761 7.67074 20.1203 7.89547 20.3457C8.35303 20.8045 8.21873 21.6508 8.20434 22.2285C9.08508 22.214 9.96844 22.2295 10.8496 22.2261C13.8606 22.2079 16.8718 22.2076 19.8828 22.225C19.8586 22.0287 19.8674 21.8265 19.8676 21.6289C19.868 21.1948 19.8365 20.7076 20.1373 20.3472C20.3285 20.1182 20.6334 19.9636 20.9371 19.9313C21.2541 19.8975 21.592 20.0066 21.8365 20.1998C22.1053 20.4125 22.2193 20.7001 22.2508 21.0239C22.2883 21.4082 22.2783 21.8409 22.2461 22.2263C22.6816 22.1813 23.1516 22.2158 23.5914 22.2184C24.2018 22.222 24.818 22.2042 25.4273 22.2395C24.7311 20.2082 23.4529 18.5012 21.423 17.5177C20.9135 17.27 20.3768 17.0769 19.8229 16.9419C19.5613 16.8799 19.2856 16.8483 19.0289 16.7722C18.9563 16.9234 18.8472 17.0618 18.7466 17.1972C18.1121 18.0518 17.1341 18.7702 16.1066 19.136C14.6927 19.6396 13.0866 19.544 11.7224 18.9472C11.1818 18.7106 10.6185 18.3669 10.185 17.9757C9.84074 17.6651 9.55106 17.3453 9.26498 16.9849C9.21418 16.9209 9.14014 16.7963 9.05938 16.7754ZM0 30.4572V38.2436H9.04113C8.92842 38.1784 8.77135 38.1567 8.64486 38.1237C8.29625 38.0324 7.99805 37.8901 7.7184 37.6705C6.79127 36.9426 6.75684 36.2675 6.56307 35.2302C6.46619 34.7116 6.37106 34.1927 6.3149 33.6682C5.70195 33.65 5.08229 33.6676 4.46871 33.6667C3.85738 33.6655 3.23697 33.6786 2.64783 33.4969C2.09481 33.3218 1.59015 33.0298 1.17132 32.6426C0.752477 32.2555 0.430213 31.7831 0.228443 31.2606C0.192134 31.1683 0.156218 31.0749 0.132821 30.9788C0.0987402 30.8387 0.086366 30.604 0.0145929 30.4808C0.0099318 30.4729 0.00486428 30.4651 0 30.4572ZM8.92889 34.8043C8.98199 35.1686 9.00061 35.6011 9.12856 35.9465C9.87863 35.9988 10.6443 35.9635 11.3969 35.9652L15.8369 35.9663L22.8926 35.9684C23.9664 35.9671 25.0471 35.991 26.1203 35.965C26.133 35.898 26.1436 35.8302 26.1613 35.7643C26.2256 35.4489 26.268 35.1337 26.3 34.814C25.2701 34.8268 24.2397 34.8156 23.2096 34.8175L15.6587 34.8201L11.1006 34.8179C10.3789 34.8155 9.64953 34.8341 8.92889 34.8043Z" fill="black"/>
<path d="M17.3714 26.7656C17.8054 26.7178 18.2451 26.8072 18.608 27.0419C19.017 27.3065 19.2822 27.7295 19.375 28.1898C19.4714 28.6675 19.3775 29.1487 19.0899 29.5524C18.7748 29.9948 18.3432 30.2052 17.8052 30.3007C17.3178 30.3391 16.8641 30.2099 16.4762 29.9263C16.0673 29.6271 15.8199 29.2122 15.7568 28.7246C15.6953 28.2494 15.8445 27.7825 16.155 27.4094C16.3031 27.2304 16.4868 27.0813 16.6956 26.9708C16.9045 26.8602 17.1342 26.7905 17.3714 26.7656Z" fill="black"/>
</svg>
